<svg xmlns="http://www.w3.org/2000/svg" xmlns:xlink="http://www.w3.org/1999/xlink" version="1.1" id="svg3025" x="0px" y="0px" viewBox="0 0 60 60" style="enable-background:new 0 0 60 60;" xml:space="preserve">
<path d="M40,30c0-2.8-1-5.1-2.9-7.1S32.8,20,30,20s-5.1,1-7.1,2.9S20,27.2,20,30  s1,5.1,2.9,7.1S27.2,40,30,40s5.1-1,7.1-2.9S40,32.8,40,30z M60,25.7v8.7c0,0.3-0.1,0.6-0.3,0.9s-0.5,0.5-0.8,0.5l-7.2,1.1  c-0.5,1.4-1,2.6-1.5,3.6c0.9,1.3,2.3,3.1,4.2,5.4c0.3,0.3,0.4,0.6,0.4,1s-0.1,0.6-0.4,0.9c-0.7,1-2,2.4-3.9,4.2s-3.1,2.8-3.7,2.8  c-0.3,0-0.7-0.1-1-0.4l-5.4-4.2c-1.1,0.6-2.3,1.1-3.6,1.5c-0.4,3.5-0.8,6-1.1,7.3c-0.2,0.7-0.7,1.1-1.4,1.1h-8.7  c-0.4,0-0.7-0.1-1-0.3s-0.4-0.5-0.4-0.8l-1.1-7.2c-1.3-0.4-2.4-0.9-3.5-1.4l-5.5,4.2c-0.3,0.2-0.6,0.4-1,0.4c-0.4,0-0.7-0.1-1-0.4  c-3.3-3-5.4-5.2-6.4-6.6c-0.2-0.3-0.3-0.6-0.3-0.9c0-0.3,0.1-0.6,0.3-0.9c0.4-0.5,1.1-1.4,2-2.6s1.6-2.1,2.1-2.8  c-0.7-1.3-1.2-2.6-1.6-3.9l-7.1-1.1c-0.3-0.1-0.6-0.2-0.8-0.5S0,34.6,0,34.3v-8.7c0-0.3,0.1-0.6,0.3-0.9s0.5-0.5,0.7-0.5l7.3-1.1  c0.4-1.2,0.9-2.4,1.5-3.6c-1-1.5-2.4-3.3-4.2-5.4c-0.3-0.3-0.4-0.6-0.4-0.9c0-0.3,0.1-0.6,0.4-0.9c0.7-0.9,2-2.3,3.8-4.2  s3.1-2.8,3.7-2.8c0.3,0,0.7,0.1,1,0.4l5.4,4.2c1.1-0.6,2.3-1.1,3.6-1.5c0.4-3.5,0.8-6,1.1-7.3C24.4,0.4,24.9,0,25.7,0h8.7  c0.4,0,0.7,0.1,1,0.3s0.4,0.5,0.4,0.8l1.1,7.2c1.3,0.4,2.4,0.9,3.5,1.4l5.5-4.2c0.2-0.2,0.5-0.4,0.9-0.4c0.3,0,0.7,0.1,1,0.4  c3.4,3.1,5.5,5.3,6.4,6.6c0.2,0.2,0.3,0.5,0.3,0.9c0,0.3-0.1,0.6-0.3,0.9c-0.4,0.5-1.1,1.4-2,2.6s-1.6,2.1-2.1,2.8  c0.7,1.3,1.2,2.6,1.6,3.8l7.1,1.1c0.3,0.1,0.6,0.2,0.8,0.5S60,25.4,60,25.7z"/>
</svg>