<?xml version="1.0" encoding="utf-8"?>
<!-- Generator: Adobe Illustrator 22.1.0, SVG Export Plug-In . SVG Version: 6.00 Build 0)  -->
<svg version="1.1" id="Layer_1" xmlns="http://www.w3.org/2000/svg" xmlns:xlink="http://www.w3.org/1999/xlink" x="0px" y="0px"
	 viewBox="0 0 256.1 108.4" style="enable-background:new 0 0 256.1 108.4;" xml:space="preserve">
<style type="text/css">
	svg {
  fill: #fff;
  }
</style>
<g id="Logo_Text">
</g>
<g>
	<g class="st0">
		<path d="M140.9,26.5c-0.6-2.9-1-4.2-2-5.8c-1.2-2-2.7-2.6-8.2-2.6h-5.5c-2.1,0-2.3,0.1-2.3,2.2v17.1h7.4c6.6,0,6.8-0.6,7.8-5.3h2
			v13.8h-2c-0.9-4.9-1.2-5.8-7.8-5.8h-7.4v13c0,6.2,0.6,6.6,7.1,7.1v2h-19.6v-2c5.8-0.4,6.3-0.9,6.3-7.1V24.7c0-6.3-0.6-6.6-6.1-7.1
			v-2h31.7c0,2.6,0.4,7.2,0.7,10.6L140.9,26.5z"/>
		<path d="M148.4,62.4v-2c5.9-0.4,6.5-0.9,6.5-7V24.6c0-6.1-0.6-6.6-6.5-7v-2h19.1v2c-5.9,0.4-6.5,0.9-6.5,7v28.8
			c0,6.2,0.6,6.6,6.5,7v2H148.4z"/>
		<path d="M197.6,26.6c-1.3-4.6-3.2-9.6-9.4-9.6c-5.5,0-8,4-8,7.9c0,5.3,3.5,7.7,9.1,10.7c5.6,2.9,12.5,6.3,12.5,14.3
			c0,7.6-6.4,13.6-16,13.6c-3,0-5.3-0.6-7.1-1.1c-1.8-0.6-2.9-1.2-3.5-1.5c-0.6-1.5-1.5-7.7-1.9-11.2l2.1-0.5
			c1.2,4.4,4.4,11.7,11.8,11.7c5.4,0,8.6-3.4,8.6-8.6c0-5.3-4-7.8-9.4-10.7c-4.6-2.4-11.9-6-11.9-14.2c0-6.9,5.5-12.8,14.8-12.8
			c3.3,0,6.3,0.8,9.1,1.7c0.3,2.6,0.6,5.4,1.2,9.9L197.6,26.6z"/>
		<path d="M256,17.6c-5.9,0.5-6.5,0.9-6.5,6.8v29.1c0,6,0.6,6.4,6.4,6.8v2h-19.3v-2c6.1-0.4,6.8-0.8,6.8-6.8V39.2h-24.6v14.4
			c0,6,0.6,6.4,6.5,6.8v2h-18.9v-2c5.8-0.4,6.3-0.8,6.3-6.8V24.5c0-6-0.6-6.3-6.5-6.8v-2h18.7v2c-5.5,0.5-6,0.9-6,6.8v11.7h24.6
			V24.5c0-6-0.6-6.3-6.2-6.8v-2h18.8v1.9H256z"/>
	</g>
	<g class="st0">
		<path d="M139.4,88c-0.7,0.4-2.2,0.7-4.1,0.7c-4.4,0-7.7-2.8-7.7-7.8c0-4.9,3.3-8.1,8.1-8.1c1.9,0,3.2,0.4,3.7,0.7l-0.5,1.6
			c-0.8-0.4-1.8-0.6-3.1-0.6c-3.6,0-6,2.3-6,6.4c0,3.8,2.2,6.2,6,6.2c1.2,0,2.5-0.3,3.3-0.6L139.4,88z"/>
		<path d="M157.6,80.6c0,5.3-3.2,8.2-7.2,8.2c-4.1,0-7-3.2-7-7.9c0-4.9,3.1-8.1,7.2-8.1C154.9,72.7,157.6,76,157.6,80.6z
			 M145.6,80.8c0,3.3,1.8,6.3,4.9,6.3c3.2,0,5-2.9,5-6.4c0-3.1-1.6-6.3-4.9-6.3C147.3,74.4,145.6,77.4,145.6,80.8z"/>
		<path d="M176.3,81.7c-0.1-2.2-0.3-4.8-0.2-6.7H176c-0.5,1.8-1.2,3.7-2,5.9l-2.7,7.5h-1.5l-2.5-7.4c-0.7-2.2-1.4-4.2-1.8-6l0,0
			c0,1.9-0.2,4.5-0.3,6.9l-0.4,6.6h-1.9l1-15.5h2.6l2.6,7.5c0.6,1.9,1.2,3.6,1.6,5.2h0.1c0.4-1.6,0.9-3.3,1.6-5.2l2.8-7.5h2.6
			l1,15.5h-2L176.3,81.7z"/>
		<path d="M184.7,73.2c1-0.2,2.2-0.3,3.8-0.3c2,0,3.4,0.5,4.3,1.3c0.9,0.7,1.4,1.9,1.4,3.2c0,1.4-0.4,2.5-1.2,3.3
			c-1.1,1.1-2.8,1.7-4.7,1.7c-0.6,0-1.1,0-1.6-0.1v6.2h-2V73.2z M186.7,80.6c0.4,0.1,1,0.2,1.7,0.2c2.4,0,3.9-1.2,3.9-3.3
			c0-2-1.4-3-3.7-3c-0.9,0-1.5,0.1-1.9,0.2V80.6z"/>
		<path d="M200.5,83.6l-1.6,4.9h-2.1l5.3-15.5h2.4l5.3,15.5h-2.1l-1.7-4.9H200.5z M205.6,82l-1.5-4.5c-0.3-1-0.6-1.9-0.8-2.8l0,0
			c-0.2,0.9-0.5,1.9-0.8,2.8l-1.6,4.5H205.6z"/>
		<path d="M215.1,88.5V73h2.2l5,7.8c1.1,1.8,2,3.4,2.8,5l0,0c-0.2-2.1-0.2-4-0.2-6.4V73h1.9v15.5h-2l-4.9-7.9
			c-1.1-1.7-2.1-3.5-2.9-5.2h-0.1c0.1,2,0.2,3.8,0.2,6.4v6.6L215.1,88.5L215.1,88.5z"/>
		<path d="M236.5,88.5v-6.6l-4.9-8.9h2.3l2.2,4.3c0.6,1.2,1.1,2.1,1.5,3.2l0,0c0.4-1,1-2,1.6-3.2l2.2-4.3h2.3l-5.2,8.9v6.6H236.5z"
			/>
	</g>
	<g>
		<path d="M46.2,99.4c-5.2-0.3-10.1-1.6-15.1-3.8c0.4,5.3,3.3,9.1,6.5,12.8c-0.6-0.3-1.2-0.6-1.7-0.9c-4.3-2.9-7.4-6.8-9.8-11.2
			c-2-3.6-4.5-6.7-7.3-9.7c-10-10.9-12.9-23.7-9.1-38c0.6-2.4,0.2-3.7-1.9-5.1C7.6,43.4,7.5,43.3,7,43c0.5-0.4,1-0.8,1.4-1.1
			c2.3-1.8,4.6-3.5,6.9-5.3c0.5-0.4,1-0.8,1.4-1.4c-3.9,1.4-7.3,3.6-10.8,6c0-1.9-0.7-3.3-2.4-4.5c3.1-1.1,5.9-2.2,8.8-3.1
			c2.2-0.7,4.5-1,6.7-1.6c0.5-0.1,1-0.4,1.6-0.7c0-0.2-0.1-0.4-0.1-0.6c-3,0.4-6,0.7-8.9,1.3s-5.8,1.4-8.7,2.1c-0.6-2-0.6-2-2.9-3.7
			c7.1-1.8,14.2-2.8,21.4-1.1c0.9,0.2,1.5,0.1,2.2-0.4c7.8-5.4,16.5-8.3,25.9-9.3c4.1-0.4,8.1-0.4,12.1,0.5c0.6,0.1,1.2,0.3,1.8,0.5
			c-1.8,4-3.6,7.9-5.4,11.9c3.7-0.3,7.2,0.3,10.7,2C68,34.8,67.5,35,67,35.2c-9,3.4-17.6,7.7-25,13.9c-5.8,4.8-10.7,10.5-13.2,17.7
			c-2.9,8.5-2.3,16.6,3.3,23.8c3.2,4.2,7.7,6.7,12.7,8.3C45.2,99,45.7,99.2,46.2,99.4z M27.2,39.9c-5.7,6.3-9.4,16.8-7.5,24.7
			c1.3-7.2,3.9-13.7,9.1-18.9C27,42.7,26.8,42.1,27.2,39.9z M41,25.7c-2.3,2.9-2.9,6.2-1.7,9.7c1.2,3.4,3.7,5.1,7.4,6
			C40.6,37.4,38.8,32.3,41,25.7z M52.2,29.7c1.1,0,1.9-0.7,2.1-1.8c0.3-1.3-0.8-1.1-1.4-1.3c-0.3-0.2-0.7-0.3-1-0.4
			c-1.1-0.5-1.7-0.2-1.9,1.1C49.9,28.5,50.8,29.7,52.2,29.7z"/>
		<path d="M17.4,19.3c0,0-0.1-0.1-0.2-0.3c-0.2-0.2-0.3-0.4-0.5-0.7c3-2.4,6.1-4.3,9.5-5.9c0.7-0.3,1.2-0.6,1.4-1.5
			c0.5-1.8,2.4-2.4,4.2-1.5c0.4,0.2,1,0.3,1.4,0.2c3.3-0.6,6.5-1.2,9.7-1.9c0.4-0.1,0.9-0.4,1.1-0.8c0.6-1,1.4-1.6,2.5-1.6
			c1.2,0,2.1,0.5,2.6,1.5c0.3,0.7,0.8,0.7,1.3,0.8c3.2,0.8,5.8-0.2,8.5-1.9c4.1-2.6,8.5-4.5,13.3-5.3c2.5-0.5,5.1-0.6,7.6,0
			c7,1.7,10.2,8.4,7,14.8c-1.1,2.2-2.9,4.2-4.3,6.2c2.4,3,5,6.3,7.5,9.3c1.6,0,3.3-0.3,4.9,0c1.2,0.2,2.4,1,3.5,1.9
			c0.7,0.6,1.2,1,2,0.4c0.6-0.4,1.4-0.4,1.5-1.5c0-0.5,0.8-1.2,1.3-1.3c0.6-0.1,1.4,0.3,1.9,0.7c0.5,0.6,0.9,1.5,1,2.3
			c0.1,0.6-0.1,1.5-0.6,1.9c-0.4,0.3-1.5,0.4-2,0.1c-1.2-0.8-1.9,0.2-2.7,0.5c-0.2,0.1-0.3,0.9-0.3,1.3c0.2,3.2-1.5,6-4.5,7.3
			c-2.9,1.2-6.3,0.4-8.4-2c-2-2.3-2.2-5.7-0.6-8.4c0.4-0.6,0.4-1.1,0-1.7c-2-3.2-4.4-6.2-7-8.9c-2.5,1.4-4.8,3-7.4,4
			c-2.5,1.1-5.2,1.7-7.8,2.4c-0.6,0.2-1.3,0-1.9,0c0-0.2-0.1-0.4-0.1-0.6c5.7-1.4,11-3.6,15.6-7.6c-1.4-1.1-2.7-2.2-4.2-3.2
			c-5.6-4-11.8-6.6-18.5-7.9c-0.5-0.1-1.2,0.1-1.7,0.3c-5.6,3-11.3,6.1-17.4,8c-5.7,1.8-11.4,2.3-17.1,0
			C19,18.7,18.3,19.1,17.4,19.3z M80.4,19.9c2.1-2,3.7-4.2,4.5-6.9c1.2-4.2-0.9-8.3-5-9.8c-2.4-0.8-4.9-0.8-7.3-0.4
			c-5.1,0.9-9.6,3-14.1,5.5c-0.1,0.1-0.2,0.2-0.3,0.4c1-0.1,1.8,0.8,2.7,0c1.8-1.5,4.1-0.7,4.7,1.6c0.1,0.3,0.4,0.7,0.7,0.9
			C71.5,13.3,76.1,16.2,80.4,19.9z M51.3,10.1c-6.6-2.3-26.5,2.8-31.1,7.8c2.7,1.1,5.6,1.4,8.5,1.2c5.3-0.5,10.1-2.4,14.8-4.8
			C46.1,13,48.6,11.6,51.3,10.1z M95,37.6c0-1-0.8-1.8-1.8-1.8s-1.8,0.8-1.8,1.9c0,1,0.8,1.7,1.8,1.7C94.3,39.5,95,38.7,95,37.6z"/>
		<path d="M81.4,86.6c-1.4,1.8-1.2,3.7-0.3,5.5c2.4,4.5,4.9,9,7.3,13.4c0.2,0.4,0.5,0.8,0.6,1.3c-6.2-3.6-10.2-9.4-14.8-14.8
			c-0.4,0.2-0.7,0.4-1.1,0.6s-0.7,0.4-1.2,0.7c0.5,0.6,0.9,1.1,1.5,2c-1.2-0.2-2.2-0.3-3.1-0.5c-0.7-0.2-3.3,0.4-3.6,1
			c-0.2,0.3-0.2,0.8,0,1.1c0.2,0.6,0.6,1,0.8,1.9c-1.1-0.4-2.2-0.8-3.3-1.3c-0.9-0.4-2.7-0.5-3.2,0.1c-0.7,0.9-0.2,1.7,0.2,2.6
			c0.1,0.2,0.2,0.4,0.4,0.7c-1.6-0.2-2.7-0.9-3.7-1.9c-0.6-0.6-1.2-0.8-2-0.7c-0.8,0.2-1.7,0.1-2.9,0.2c0.4,1.2,0.7,2.3,1.1,3.4
			c-2-0.4-3.5-1.5-5-2.9c-0.5-0.5-1.2-0.9-1.8-1C37,96.6,27,85.3,29.7,72.4c2-9.4,7.5-16.3,15.2-21.7c0.1-0.1,0.2-0.1,0.3-0.1
			c-1.6,2-3.4,3.9-4.9,5.9c-3,4.1-5,8.7-5.3,13.9c-0.5,8.6,3.4,14.9,10.9,18.9c7.1,3.7,14.7,4,22.5,2.3c4.2-1,8.2-2.5,12.1-4.4
			C80.7,86.9,81,86.8,81.4,86.6z"/>
		<path d="M86,68.2c-1.3,2.6-2.7,5.1-3.8,7.8c-0.9,2.3-1.6,4.6-2.3,7c-0.3,1.3,0.1,2,1.2,2.9c-4,1.8-7.9,3.5-12.2,4.3
			c-6.7,1.4-13.4,1.4-19.9-1.1c-6.1-2.4-10.5-6.5-12-13.2c-0.8-3.4-0.5-6.7,0.6-10C39.4,60,43,55.4,47.7,51.3
			c2.3,3.4,4.4,6.8,3.5,11.4c-2.3-1.3-4.5-2.4-6.8-3.7c-0.8,3-0.9,5.8-0.4,8.7c0.4,2.1,1.2,4.1,1.8,6.1c0.2,0.7,0.7,0.9,1.4,0.9
			c3.6,0,7.2,0.2,10.6,1.6c0.5,0.2,1,0.5,1.5,0.8c-3.7-0.5-7.3-0.8-11,1c1.5,1.4,2.9,2.8,4.4,4c0.2,0.2,0.7,0.1,1.1,0
			c1.7-0.5,3.4-0.6,5.2-0.1c-0.7,0.6-1.3,1.1-1.9,1.6c-0.5,0.5-0.4,1,0.3,1.3c0.5,0.2,0.9,0.5,1.4,0.5c0.4,0,1,0,1.3-0.2
			c1.2-0.9,2.4-1.6,4.1-1.7c-0.2,0.4-0.4,0.6-0.5,0.9c-0.4,0.7-0.9,1.5-0.2,2.2c0.5,0.5,2.2,0.2,2.8-0.2c0.9-0.7,1.9-1.3,2.8-1.9
			c0.1,0.1,0.2,0.2,0.3,0.3C69.2,85.4,69,86,68.7,87c1.5-0.3,2.8-0.5,4-0.8c0.3-0.1,0.5-0.6,0.7-0.9c2.7-4.9,5.5-9.8,9-14.1
			c1-1.2,2.2-2.2,3.2-3.3C85.9,68,85.9,68.1,86,68.2z"/>
		<path d="M93.4,49.5c-5.3-0.9-7.9-3.5-7.6-7.9c1.3,3.3,3.4,5.3,6.8,5.6c3.3,0.3,5.8-1.3,7.5-4.2c-0.1,2-1,3.7-2.6,4.8
			c-0.7,0.5-0.9,1-0.7,1.8c0.1,0.4,0.1,0.8,0.1,1.2c0.1,0.9,0.2,1.7,1.2,2.4c1.1,0.8,1.1,2.1,1.1,3.3c-0.1,10.7-3.3,20.4-9.6,29.1
			c-0.9,1.2-1.9,2-3.5,1.8c-2.7-0.4-3.9-3.2-2.2-5.5c3.9-5.3,6.6-11.2,7.7-17.7c0.5-2.6,0.6-5.3,0.7-8c0.1-1.2,0.4-2.1,1.1-3.1
			c0.4-0.5,0.2-1.5,0.2-2.3C93.6,50.4,93.5,50,93.4,49.5z"/>
	</g>
</g>
</svg>
